<?xml version="1.0" encoding="utf-8"?>
<svg viewBox="66.965 34.598 196.985 56.363" width="196.985" height="56.363" xmlns="http://www.w3.org/2000/svg">
  <g fill="none" fill-rule="evenodd" transform="matrix(1, 0, 0, 1, 71.982147, 36.825893)">
    <circle cx="24" cy="24" r="24" fill="#FFF"/>
    <path fill="#0B0D17" d="M24 0c0 16-8 24-24 24 15.718.114 23.718 8.114 24 24 0-16 8-24 24-24-16 0-24-8-24-24z"/>
  </g>
  <path d="M 132.446 66.406 L 130.031 66.406 L 126.628 57.941 L 124.857 66.406 L 122.443 66.406 L 125.072 53.808 L 127.496 53.808 L 130.907 62.238 L 132.669 53.808 L 135.075 53.808 Z M 138.525 59.866 L 136.119 59.66 Q 136.532 58.44 137.559 57.752 Q 138.586 57.065 140.279 57.065 Q 142.04 57.065 142.883 57.774 Q 143.725 58.483 143.725 59.505 Q 143.725 59.918 143.652 60.382 Q 143.579 60.846 143.14 62.822 Q 142.779 64.455 142.779 65.108 Q 142.779 65.693 142.986 66.406 L 140.588 66.406 Q 140.442 65.908 140.408 65.375 Q 139.866 65.976 139.161 66.299 Q 138.457 66.621 137.743 66.621 Q 136.609 66.621 135.87 65.877 Q 135.131 65.134 135.131 63.965 Q 135.131 62.659 135.943 61.877 Q 136.755 61.095 138.843 60.932 Q 140.605 60.786 141.198 60.579 Q 141.353 60.064 141.353 59.754 Q 141.353 59.359 141.035 59.093 Q 140.717 58.826 140.09 58.826 Q 139.428 58.826 139.045 59.097 Q 138.663 59.368 138.525 59.866 Z M 140.872 62.152 Q 140.648 62.212 140.279 62.264 Q 138.422 62.487 137.855 62.917 Q 137.451 63.226 137.451 63.751 Q 137.451 64.18 137.761 64.477 Q 138.07 64.773 138.577 64.773 Q 139.136 64.773 139.63 64.502 Q 140.124 64.232 140.369 63.806 Q 140.614 63.381 140.803 62.479 Z M 146.673 57.279 L 149.01 57.279 L 148.813 58.216 Q 149.56 57.597 150.214 57.331 Q 150.867 57.065 151.614 57.065 Q 153.05 57.065 153.922 58.053 Q 154.794 59.041 154.794 61.001 Q 154.794 63.467 153.29 65.169 Q 152.001 66.621 150.239 66.621 Q 148.426 66.621 147.498 65.151 L 146.51 69.886 L 144.043 69.886 Z M 148.16 62.513 Q 148.16 63.579 148.68 64.167 Q 149.2 64.756 149.904 64.756 Q 150.514 64.756 151.082 64.313 Q 151.649 63.871 152.023 62.844 Q 152.396 61.817 152.396 60.94 Q 152.396 59.918 151.907 59.372 Q 151.417 58.826 150.66 58.826 Q 149.956 58.826 149.376 59.329 Q 148.796 59.832 148.478 60.807 Q 148.16 61.783 148.16 62.513 Z M 155.56 66.406 L 158.199 53.808 L 160.656 53.808 L 158.027 66.406 Z M 169.354 62.608 L 163.167 62.608 Q 163.158 62.754 163.158 62.831 Q 163.158 63.742 163.678 64.301 Q 164.198 64.859 164.946 64.859 Q 166.175 64.859 166.862 63.587 L 169.071 63.957 Q 168.426 65.289 167.348 65.955 Q 166.269 66.621 164.929 66.621 Q 163.09 66.621 161.938 65.456 Q 160.786 64.292 160.786 62.376 Q 160.786 60.502 161.826 59.041 Q 163.244 57.065 165.874 57.065 Q 167.55 57.065 168.538 58.1 Q 169.526 59.136 169.526 61.001 Q 169.526 61.894 169.354 62.608 Z M 167.275 61.104 Q 167.283 60.94 167.283 60.854 Q 167.283 59.84 166.828 59.333 Q 166.372 58.826 165.608 58.826 Q 164.843 58.826 164.237 59.402 Q 163.631 59.978 163.416 61.104 Z M 170.611 62.616 Q 170.611 60.081 172.042 58.573 Q 173.473 57.065 175.802 57.065 Q 177.821 57.065 178.956 58.177 Q 180.09 59.29 180.09 61.172 Q 180.09 63.39 178.672 65.005 Q 177.254 66.621 174.874 66.621 Q 173.585 66.621 172.588 66.105 Q 171.591 65.59 171.101 64.644 Q 170.611 63.699 170.611 62.616 Z M 177.641 60.854 Q 177.641 59.978 177.13 59.449 Q 176.618 58.921 175.811 58.921 Q 175.011 58.921 174.393 59.415 Q 173.774 59.909 173.43 60.85 Q 173.086 61.791 173.086 62.582 Q 173.086 63.561 173.619 64.137 Q 174.152 64.713 174.96 64.713 Q 175.974 64.713 176.661 63.845 Q 177.641 62.616 177.641 60.854 Z M 182.943 57.279 L 185.281 57.279 L 185.04 58.465 Q 185.917 57.709 186.677 57.387 Q 187.438 57.065 188.28 57.065 Q 189.406 57.065 190.055 57.709 Q 190.703 58.354 190.703 59.419 Q 190.703 59.901 190.42 61.241 L 189.346 66.406 L 186.879 66.406 L 187.962 61.224 Q 188.203 60.064 188.203 59.84 Q 188.203 59.368 187.923 59.097 Q 187.644 58.826 187.146 58.826 Q 186.604 58.826 185.942 59.282 Q 185.281 59.737 184.903 60.485 Q 184.628 61.018 184.284 62.659 L 183.502 66.406 L 181.035 66.406 Z M 192.149 62.324 L 194.615 62.195 Q 194.667 63.372 195.019 63.785 Q 195.586 64.455 197.116 64.455 Q 198.388 64.455 198.955 64 Q 199.522 63.544 199.522 62.9 Q 199.522 62.341 199.058 61.954 Q 198.731 61.671 197.266 61.035 Q 195.801 60.399 195.126 59.974 Q 194.452 59.548 194.065 58.869 Q 193.678 58.19 193.678 57.279 Q 193.678 55.69 194.83 54.641 Q 195.981 53.593 198.164 53.593 Q 200.381 53.593 201.597 54.633 Q 202.813 55.672 202.934 57.4 L 200.45 57.511 Q 200.356 56.609 199.797 56.128 Q 199.238 55.647 198.147 55.647 Q 197.073 55.647 196.613 56.025 Q 196.153 56.403 196.153 56.979 Q 196.153 57.52 196.574 57.872 Q 196.996 58.233 198.439 58.861 Q 200.613 59.797 201.206 60.382 Q 202.092 61.241 202.092 62.59 Q 202.092 64.258 200.772 65.439 Q 199.453 66.621 197.099 66.621 Q 195.474 66.621 194.284 66.075 Q 193.094 65.529 192.604 64.558 Q 192.114 63.587 192.149 62.324 Z M 205.302 57.279 L 207.639 57.279 L 207.442 58.216 Q 208.189 57.597 208.842 57.331 Q 209.495 57.065 210.243 57.065 Q 211.678 57.065 212.551 58.053 Q 213.423 59.041 213.423 61.001 Q 213.423 63.467 211.919 65.169 Q 210.63 66.621 208.868 66.621 Q 207.055 66.621 206.127 65.151 L 205.138 69.886 L 202.672 69.886 Z M 206.788 62.513 Q 206.788 63.579 207.308 64.167 Q 207.828 64.756 208.533 64.756 Q 209.143 64.756 209.71 64.313 Q 210.278 63.871 210.651 62.844 Q 211.025 61.817 211.025 60.94 Q 211.025 59.918 210.535 59.372 Q 210.045 58.826 209.289 58.826 Q 208.585 58.826 208.004 59.329 Q 207.424 59.832 207.106 60.807 Q 206.788 61.783 206.788 62.513 Z M 217.702 59.866 L 215.296 59.66 Q 215.709 58.44 216.736 57.752 Q 217.763 57.065 219.456 57.065 Q 221.217 57.065 222.059 57.774 Q 222.902 58.483 222.902 59.505 Q 222.902 59.918 222.829 60.382 Q 222.756 60.846 222.317 62.822 Q 221.956 64.455 221.956 65.108 Q 221.956 65.693 222.163 66.406 L 219.765 66.406 Q 219.619 65.908 219.584 65.375 Q 219.043 65.976 218.338 66.299 Q 217.634 66.621 216.92 66.621 Q 215.786 66.621 215.047 65.877 Q 214.308 65.134 214.308 63.965 Q 214.308 62.659 215.12 61.877 Q 215.932 61.095 218.02 60.932 Q 219.782 60.786 220.375 60.579 Q 220.53 60.064 220.53 59.754 Q 220.53 59.359 220.212 59.093 Q 219.894 58.826 219.267 58.826 Q 218.605 58.826 218.222 59.097 Q 217.84 59.368 217.702 59.866 Z M 220.049 62.152 Q 219.825 62.212 219.456 62.264 Q 217.599 62.487 217.032 62.917 Q 216.628 63.226 216.628 63.751 Q 216.628 64.18 216.938 64.477 Q 217.247 64.773 217.754 64.773 Q 218.313 64.773 218.807 64.502 Q 219.301 64.232 219.546 63.806 Q 219.791 63.381 219.98 62.479 Z M 230.191 62.969 L 232.589 63.355 Q 231.996 64.954 230.836 65.787 Q 229.676 66.621 228.146 66.621 Q 226.402 66.621 225.379 65.581 Q 224.356 64.541 224.356 62.719 Q 224.356 61.233 224.975 59.909 Q 225.594 58.586 226.84 57.825 Q 228.086 57.065 229.573 57.065 Q 231.188 57.065 232.151 57.907 Q 233.113 58.749 233.234 60.124 L 230.887 60.373 Q 230.802 59.608 230.419 59.247 Q 230.037 58.886 229.418 58.886 Q 228.705 58.886 228.086 59.419 Q 227.467 59.952 227.136 61.013 Q 226.805 62.075 226.805 63.003 Q 226.805 63.811 227.201 64.249 Q 227.596 64.687 228.189 64.687 Q 228.782 64.687 229.332 64.258 Q 229.882 63.828 230.191 62.969 Z M 242.672 62.608 L 236.484 62.608 Q 236.476 62.754 236.476 62.831 Q 236.476 63.742 236.995 64.301 Q 237.515 64.859 238.263 64.859 Q 239.492 64.859 240.179 63.587 L 242.388 63.957 Q 241.744 65.289 240.665 65.955 Q 239.587 66.621 238.246 66.621 Q 236.407 66.621 235.255 65.456 Q 234.104 64.292 234.104 62.376 Q 234.104 60.502 235.144 59.041 Q 236.562 57.065 239.191 57.065 Q 240.867 57.065 241.855 58.1 Q 242.844 59.136 242.844 61.001 Q 242.844 61.894 242.672 62.608 Z M 240.592 61.104 Q 240.601 60.94 240.601 60.854 Q 240.601 59.84 240.145 59.333 Q 239.69 58.826 238.925 58.826 Q 238.16 58.826 237.554 59.402 Q 236.948 59.978 236.733 61.104 Z" style="fill: rgb(255, 255, 255); white-space: pre;"/>
</svg>